<?xml version="1.0" encoding="UTF-8" standalone="no" ?>
<!DOCTYPE svg PUBLIC "-//W3C//DTD SVG 1.1//EN" "http://www.w3.org/Graphics/SVG/1.1/DTD/svg11.dtd">
<svg xmlns="http://www.w3.org/2000/svg" xmlns:xlink="http://www.w3.org/1999/xlink" version="1.1" width="1280" height="1024" viewBox="0 0 1280 1024" xml:space="preserve">
<desc>Created with Fabric.js 4.4.0</desc>
<defs>
</defs>
<g transform="matrix(1 0 0 1 640 512)" id="background-logo"  >
<rect style="stroke: none; stroke-width: 0; stroke-dasharray: none; stroke-linecap: butt; stroke-dashoffset: 0; stroke-linejoin: miter; stroke-miterlimit: 4; fill: rgb(255,255,255); fill-opacity: 0; fill-rule: nonzero; opacity: 1;"  paint-order="stroke"  x="-640" y="-512" rx="0" ry="0" width="1280" height="1024" />
</g>
<g transform="matrix(1.4873011000092287 0 0 1.4873011000092287 161.11318605777967 512.2722730301011)" id="logo-logo"  >
<g style=""  paint-order="stroke"   >
		<g transform="matrix(2.798863057811006 0 0 2.798863057811006 -24.350108602955743 -27.183957448989446)"  >
<path style="stroke: none; stroke-width: 1; stroke-dasharray: none; stroke-linecap: butt; stroke-dashoffset: 0; stroke-linejoin: miter; stroke-miterlimit: 4; fill: rgb(0,110,255); fill-rule: evenodd; opacity: 1;"  paint-order="stroke"  transform=" translate(-63.3, -62.28489577241003)" d="M 81.1 58.2 L 72.8 43.800000000000004 C 72.1 42.6 71.2 41.7 69.5 42.7 L 47.5 55.400000000000006 C 46.3 56.10000000000001 45.5 57.300000000000004 45.5 58.800000000000004 L 45.5 62.00000000000001 L 53.7 57.00000000000001 L 45.5 63.20000000000001 L 45.5 66.4 L 58 57.1 C 53.8 60.9 49.7 64.7 45.5 68.5 L 45.5 72.6 L 61.4 57.099999999999994 C 56.1 63.39999999999999 50.8 69.8 45.5 76.1 L 45.5 82.3 L 62.9 58.199999999999996 C 63.3 57.49999999999999 64 57.099999999999994 64.8 57.099999999999994 L 79.2 57.099999999999994 C 80 57.1 80.7 57.6 81.1 58.2 z" stroke-linecap="round" />
</g>
		<g transform="matrix(2.798863057811006 0 0 2.798863057811006 -13.4345426774928 -60.91025729561201)"  >
<linearGradient id="SVGID_14_7_7_1110839" gradientUnits="userSpaceOnUse" gradientTransform="matrix(1 0 0 1 53.3 42.269791544820066)"  x1="0" y1="0" x2="0" y2="16">
<stop offset="0%" style="stop-color:rgb(91,36,122);stop-opacity: 1"/>
<stop offset="100%" style="stop-color:rgb(27,206,223);stop-opacity: 1"/>
</linearGradient>
<path style="stroke: none; stroke-width: 1; stroke-dasharray: none; stroke-linecap: butt; stroke-dashoffset: 0; stroke-linejoin: miter; stroke-miterlimit: 4; fill: url(#SVGID_14_7_7_1110839); fill-rule: evenodd; opacity: 1;"  paint-order="stroke"  transform=" translate(-67.2, -50.234895772410034)" d="M 53.3 52 C 61 47.5 73.19999999999999 50.3 80.4 57.5 C 80.7 57.7 80.9 57.9 81.10000000000001 58.2 L 72.80000000000001 43.800000000000004 C 72.10000000000001 42.6 71.20000000000002 41.7 69.50000000000001 42.7 L 53.3 52 L 53.3 52 z" stroke-linecap="round" />
</g>
		<g transform="matrix(2.798863057811006 0 0 2.798863057811006 42.82260478450843 -19.724695681171937)"  >
<linearGradient id="SVGID_15_8_8_1110840" gradientUnits="userSpaceOnUse" gradientTransform="matrix(1 0 0 1 76.20000000000002 43.5)"  x1="0" y1="0" x2="0" y2="43">
<stop offset="0%" style="stop-color:rgb(113,23,234);stop-opacity: 1"/>
<stop offset="100%" style="stop-color:rgb(234,96,96);stop-opacity: 1"/>
</linearGradient>
<path style="stroke: none; stroke-width: 1; stroke-dasharray: none; stroke-linecap: butt; stroke-dashoffset: 0; stroke-linejoin: miter; stroke-miterlimit: 4; fill: url(#SVGID_15_8_8_1110840); fill-rule: evenodd; opacity: 1;"  paint-order="stroke"  transform=" translate(-87.30000000000001, -64.95)" d="M 79.2 86.4 L 95.80000000000001 86.4 C 97.20000000000002 86.4 98.4 86 98.4 84.10000000000001 L 98.4 58.7 C 98.4 57.400000000000006 97.7 56 96.5 55.300000000000004 L 93.7 53.7 L 93.9 63.300000000000004 L 92.60000000000001 53.10000000000001 L 89.80000000000001 51.50000000000001 L 91.7 67 C 90.5 61.5 89.3 56 88.10000000000001 50.5 L 84.50000000000001 48.4 L 90 69.9 C 87.2 62.10000000000001 84.3 54.400000000000006 81.5 46.60000000000001 L 76.2 43.50000000000001 L 88.4 70.60000000000001 C 88.80000000000001 71.30000000000001 88.80000000000001 72.10000000000001 88.4 72.7 L 81.2 85.2 C 80.7 86 80 86.4 79.2 86.4 L 79.2 86.4 z" stroke-linecap="round" />
</g>
		<g transform="matrix(2.798863057811006 0 0 2.798863057811006 47.160842524115424 11.062797954749158)"  >
<linearGradient id="SVGID_16_9_9_1110841" gradientUnits="userSpaceOnUse" gradientTransform="matrix(1 0 0 1 79.19999999999999 65.5)"  x1="0" y1="0" x2="0" y2="21">
<stop offset="0%" style="stop-color:rgb(113,23,234);stop-opacity: 1"/>
<stop offset="100%" style="stop-color:rgb(234,96,96);stop-opacity: 1"/>
</linearGradient>
<path style="stroke: none; stroke-width: 1; stroke-dasharray: none; stroke-linecap: butt; stroke-dashoffset: 0; stroke-linejoin: miter; stroke-miterlimit: 4; fill: url(#SVGID_16_9_9_1110841); fill-rule: evenodd; opacity: 1;"  paint-order="stroke"  transform=" translate(-88.85, -75.95)" d="M 98.5 65.5 C 98.5 74.4 90 83.6 80.2 86.2 C 79.9 86.4 79.60000000000001 86.4 79.2 86.4 L 95.80000000000001 86.4 C 97.20000000000002 86.4 98.4 86 98.4 84.10000000000001 L 98.4 65.5 z" stroke-linecap="round" />
</g>
		<g transform="matrix(2.798863057811006 0 0 2.798863057811006 -4.137238578485039 39.78613008553464)"  >
<linearGradient id="SVGID_17_10_10_1110842" gradientUnits="userSpaceOnUse" gradientTransform="matrix(1 0 0 1 46.84362915010153 70.69999999999999)"  x1="0" y1="0" x2="0" y2="31">
<stop offset="0%" style="stop-color:rgb(66,230,149);stop-opacity: 1"/>
<stop offset="100%" style="stop-color:rgb(59,178,184);stop-opacity: 1"/>
</linearGradient>
<path style="stroke: none; stroke-width: 1; stroke-dasharray: none; stroke-linecap: butt; stroke-dashoffset: 0; stroke-linejoin: miter; stroke-miterlimit: 4; fill: url(#SVGID_17_10_10_1110842); fill-rule: evenodd; opacity: 1;"  paint-order="stroke"  transform=" translate(-70.52181457505077, -86.2125)" d="M 55.7 70.7 L 47.400000000000006 85.10000000000001 C 46.7 86.30000000000001 46.400000000000006 87.60000000000001 48.10000000000001 88.50000000000001 L 70.10000000000001 101.20000000000002 C 71.30000000000001 101.90000000000002 72.7 101.90000000000002 74.00000000000001 101.20000000000002 L 76.80000000000001 99.60000000000002 L 68.3 95 L 77.7 99 L 80.5 97.4 L 66.2 91.2 C 71.60000000000001 92.9 76.9 94.60000000000001 82.30000000000001 96.3 L 85.9 94.2 L 64.5 88.2 C 72.6 89.60000000000001 80.8 91 88.9 92.4 L 94.2 89.30000000000001 L 64.6 86.30000000000001 C 63.8 86.30000000000001 63.099999999999994 85.9 62.699999999999996 85.20000000000002 L 55.49999999999999 72.70000000000002 C 55.3 72.2 55.3 71.3 55.7 70.7 L 55.7 70.7 z" stroke-linecap="round" />
</g>
		<g transform="matrix(2.798863057811006 0 0 2.798863057811006 -46.12018444565018 34.15341818168986)"  >
<linearGradient id="SVGID_18_11_11_1110843" gradientUnits="userSpaceOnUse" gradientTransform="matrix(0.072 0 0 -0.072 -1788.256 -1777.744)"  x1="25748.002" y1="-25645.5586" x2="25608.7324" y2="-25968.0293">
<stop offset="0%" style="stop-color:rgb(0,0,255);stop-opacity: 1"/>
<stop offset="100%" style="stop-color:rgb(102,102,255);stop-opacity: 1"/>
</linearGradient>
<path style="stroke: none; stroke-width: 1; stroke-dasharray: none; stroke-linecap: butt; stroke-dashoffset: 0; stroke-linejoin: miter; stroke-miterlimit: 4; fill: url(#SVGID_18_11_11_1110843); fill-rule: evenodd; opacity: 1;"  paint-order="stroke"  transform=" translate(-55.52181457505076, -84.19999999999999)" d="M 64.2 97.8 C 56.5 93.3 52.800000000000004 81.4 55.400000000000006 71.6 C 55.400000000000006 71.3 55.50000000000001 70.89999999999999 55.7 70.6 L 47.400000000000006 85 C 46.7 86.2 46.400000000000006 87.5 48.10000000000001 88.4 L 64.2 97.8 L 64.2 97.8 z" stroke-linecap="round" />
</g>
</g>
</g>
<g transform="matrix(1.9211538461538462 0 0 1.9211538461538462 679.0033802898527 507.08821210069664)" id="text-logo"  >
<g style=""  paint-order="stroke"   >
		<g transform="matrix(1 0 0 1 0 0)" id="text-logo-path-0"  >
<path style="stroke: none; stroke-width: 0; stroke-dasharray: none; stroke-linecap: butt; stroke-dashoffset: 0; stroke-linejoin: miter; stroke-miterlimit: 4; fill: rgb(233,233,233); fill-rule: nonzero; opacity: 1;"  paint-order="stroke"  transform=" translate(-180.13361757067443, 27.218870108499384)" d="M 22.78 -28 Q 24.18 -31.28 26.05 -34.55 Q 27.92 -37.83 29.84 -41.11 Q 31.75 -44.38 33.42 -47.66 Q 35.1 -50.93 36.04 -54.21 L 36.04 -54.21 Q 33.54 -54.6 30.73 -54.44 Q 27.92 -54.29 25.43 -54.44 L 25.43 -54.44 Q 23.79 -52.1 22.5 -49.76 Q 21.22 -47.42 20.01 -45.08 Q 18.8 -42.74 17.47 -40.48 Q 16.15 -38.22 14.51 -36.11 L 14.51 -36.11 Q 14.35 -35.96 14.23 -35.76 Q 14.12 -35.57 14.12 -35.65 L 14.12 -35.65 Q 13.96 -40.09 14.04 -45.01 Q 14.12 -49.92 13.96 -54.37 L 13.96 -54.37 Q 11.47 -54.37 8.78 -54.48 Q 6.08 -54.6 3.51 -54.52 L 3.51 -54.52 Q 3.59 -40.87 3.16 -27.34 Q 2.73 -13.81 3.35 -0.39 L 3.35 -0.39 Q 4.37 -0.16 5.89 0 Q 7.41 0.16 9.05 0.16 Q 10.69 0.16 12.17 0.04 Q 13.65 -0.08 14.74 -0.39 L 14.74 -0.39 Q 14.74 -2.57 14.7 -5.15 Q 14.66 -7.72 14.59 -10.37 Q 14.51 -13.03 14.47 -15.64 Q 14.43 -18.25 14.51 -20.51 L 14.51 -20.51 Q 15.76 -18.33 17 -15.6 Q 18.25 -12.87 19.54 -10.06 Q 20.83 -7.25 22.23 -4.64 Q 23.63 -2.03 25.27 -0.16 L 25.27 -0.16 Q 27.77 -0.08 30.69 0.08 Q 33.62 0.23 36.11 -0.31 L 36.11 -0.31 L 22.78 -28 Z M 57.25 -36.27 Q 57.25 -36.82 57.21 -37.05 Q 57.17 -37.28 57.17 -37.48 Q 57.17 -37.67 57.17 -37.99 Q 57.17 -38.3 57.17 -38.92 L 57.17 -38.92 Q 57.17 -39.08 56.51 -39.12 Q 55.85 -39.16 54.95 -39.08 Q 54.05 -39 53.23 -38.92 Q 52.42 -38.84 52.1 -38.84 L 52.1 -38.84 Q 51.17 -38.77 50.54 -38.73 Q 49.92 -38.69 49.37 -38.69 Q 48.83 -38.69 48.2 -38.73 Q 47.58 -38.77 46.64 -38.84 L 46.64 -38.84 Q 46.33 -28.55 46.53 -18.95 Q 46.72 -9.36 46.72 0.23 L 46.72 0.23 Q 48.59 0.08 49.96 0.16 Q 51.32 0.23 52.49 0.27 Q 53.66 0.31 54.76 0.23 Q 55.85 0.16 57.17 -0.23 L 57.17 -0.23 L 57.17 -0.55 Q 57.17 -3.43 57.14 -5.97 Q 57.1 -8.5 57.1 -10.96 Q 57.1 -13.42 57.02 -15.83 Q 56.94 -18.25 56.86 -20.98 L 56.86 -20.98 Q 56.78 -23.17 57.49 -24.34 Q 58.19 -25.51 59.48 -26.05 Q 60.76 -26.6 62.52 -26.6 Q 64.27 -26.6 66.38 -26.36 L 66.38 -26.36 Q 66.46 -26.36 67.43 -26.21 Q 68.41 -26.05 69.34 -25.82 L 69.34 -25.82 Q 69.73 -25.66 70.16 -25.55 Q 70.59 -25.43 70.98 -25.27 L 70.98 -25.27 L 71.68 -25.04 Q 71.6 -26.21 71.6 -27.53 Q 71.6 -28.86 71.6 -30.46 Q 71.6 -32.06 71.64 -34.09 Q 71.68 -36.11 71.68 -38.77 L 71.68 -38.77 Q 71.68 -38.84 70.55 -38.88 Q 69.42 -38.92 67.78 -38.84 Q 66.14 -38.77 64.27 -38.49 Q 62.4 -38.22 60.92 -37.75 L 60.92 -37.75 Q 59.83 -37.36 58.7 -36.89 Q 57.56 -36.43 57.25 -36.27 L 57.25 -36.27 Z M 102.34 -4.21 Q 102.41 -3.12 102.38 -2.26 Q 102.34 -1.4 102.49 -0.08 L 102.49 -0.08 Q 102.49 0.16 103.12 0.2 Q 103.74 0.23 104.52 0.16 Q 105.3 0.08 106.08 -0.04 Q 106.86 -0.16 107.17 -0.16 L 107.17 -0.16 Q 108.11 -0.23 108.73 -0.27 Q 109.36 -0.31 109.9 -0.31 Q 110.45 -0.31 111.07 -0.27 Q 111.7 -0.23 112.63 -0.16 L 112.63 -0.16 Q 112.94 -10.45 112.75 -20.05 Q 112.55 -29.64 112.55 -39.23 L 112.55 -39.23 Q 110.68 -39.08 109.43 -39.16 Q 108.19 -39.23 107.17 -39.27 Q 106.16 -39.31 105.18 -39.23 Q 104.21 -39.16 102.88 -38.77 L 102.88 -38.77 L 102.88 -38.45 Q 102.49 -35.88 102.53 -33.31 Q 102.57 -30.73 102.69 -28.12 Q 102.8 -25.51 102.88 -22.85 Q 102.96 -20.2 102.8 -17.55 L 102.8 -17.55 Q 102.65 -15.44 101.71 -14.39 Q 100.78 -13.34 99.61 -12.99 Q 98.44 -12.64 97.23 -12.83 Q 96.02 -13.03 95.39 -13.34 L 95.39 -13.34 Q 95.32 -13.42 95.24 -13.42 Q 95.16 -13.42 95.08 -13.49 L 95.08 -13.49 Q 94.46 -13.96 94.11 -14.82 Q 93.76 -15.68 93.56 -16.77 Q 93.37 -17.86 93.29 -18.99 Q 93.21 -20.12 93.13 -21.06 L 93.13 -21.06 Q 92.98 -23.17 92.94 -25.58 Q 92.9 -28 92.94 -30.42 Q 92.98 -32.84 92.98 -35.1 Q 92.98 -37.36 92.82 -39.16 L 92.82 -39.16 Q 90.09 -39.16 87.95 -39.2 Q 85.8 -39.23 83.07 -38.84 L 83.07 -38.84 Q 83.23 -36.19 83.15 -32.68 Q 83.07 -29.17 82.99 -25.39 Q 82.91 -21.61 82.88 -17.9 Q 82.84 -14.2 82.95 -11.08 Q 83.07 -7.96 83.5 -5.73 Q 83.93 -3.51 84.71 -2.81 L 84.71 -2.81 Q 86.35 -1.4 88.37 -0.86 Q 90.4 -0.31 92.55 -0.39 Q 94.69 -0.47 96.72 -1.17 Q 98.75 -1.87 100.39 -3.04 L 100.39 -3.04 Q 100.78 -3.35 101.36 -3.67 Q 101.95 -3.98 102.34 -4.21 L 102.34 -4.21 Z M 157.48 -26.99 Q 157.48 -31.2 155.92 -34.59 Q 154.36 -37.99 150.7 -39.55 L 150.7 -39.55 Q 148.67 -40.01 146.25 -40.29 Q 143.83 -40.56 141.41 -40.56 Q 139 -40.56 136.85 -40.33 Q 134.71 -40.09 133.22 -39.7 L 133.22 -39.7 Q 129.4 -38.69 127.34 -35.8 Q 125.27 -32.92 125.15 -29.52 Q 125.03 -26.13 127.02 -22.97 Q 129.01 -19.81 133.38 -18.33 L 133.38 -18.33 Q 135.56 -17.39 137.83 -17 Q 140.09 -16.61 141.88 -16.11 Q 143.68 -15.6 144.77 -14.66 Q 145.86 -13.73 145.63 -11.86 L 145.63 -11.86 Q 145.7 -9.59 144.22 -8.74 Q 142.74 -7.88 140.95 -8.07 Q 139.15 -8.27 137.55 -9.4 Q 135.95 -10.53 135.88 -12.32 L 135.88 -12.32 Q 133.46 -12.32 130.18 -12.44 Q 126.91 -12.56 124.33 -12.25 L 124.33 -12.25 L 124.33 -12.09 L 124.33 -11.86 Q 124.33 -8.74 125.62 -6.24 Q 126.91 -3.74 129.21 -2.03 Q 131.51 -0.31 134.71 0.55 Q 137.9 1.4 141.88 1.25 L 141.88 1.25 Q 146.41 1.33 150.23 -0.31 Q 154.05 -1.95 155.84 -5.77 L 155.84 -5.77 Q 157.33 -10.06 156.94 -12.99 Q 156.55 -15.91 154.83 -18.72 L 154.83 -18.72 Q 153.04 -21.06 149.21 -22.11 Q 145.39 -23.17 141.02 -23.79 L 141.02 -23.79 Q 139.23 -24.41 138.29 -25.66 Q 137.36 -26.91 137.36 -28.16 Q 137.36 -29.41 138.25 -30.46 Q 139.15 -31.51 140.95 -31.82 L 140.95 -31.82 Q 141.96 -31.9 143.01 -31.55 Q 144.07 -31.2 144.88 -30.5 Q 145.7 -29.8 146.13 -28.86 Q 146.56 -27.92 146.33 -26.99 L 146.33 -26.99 Q 148.98 -26.44 151.98 -26.52 Q 154.99 -26.6 157.48 -26.99 L 157.48 -26.99 Z M 183.3 -53.35 Q 181.97 -53.2 180.65 -53.27 Q 179.32 -53.35 178 -53.47 Q 176.67 -53.59 175.46 -53.66 Q 174.25 -53.74 173.24 -53.59 L 173.24 -53.59 Q 173.08 -52.1 173.04 -50.23 Q 173 -48.36 173 -46.33 Q 173 -44.3 173.08 -42.31 Q 173.16 -40.33 173.16 -38.61 L 173.16 -38.61 Q 171.91 -38.61 170.55 -38.61 Q 169.18 -38.61 167.62 -38.69 L 167.62 -38.69 L 167.39 -29.17 Q 169.03 -29.17 170.39 -29.17 Q 171.76 -29.17 173 -29.25 L 173 -29.25 Q 172.93 -23.56 173.08 -18.21 Q 173.24 -12.87 174.25 -6.86 L 174.25 -6.86 Q 175.27 -4.45 177.57 -3.04 Q 179.87 -1.64 182.83 -0.94 Q 185.8 -0.23 189.15 -0.04 Q 192.5 0.16 195.62 0 L 195.62 0 Q 196.01 -1.17 196.13 -2.57 Q 196.25 -3.98 196.17 -5.38 Q 196.09 -6.79 195.94 -8.11 Q 195.78 -9.44 195.62 -10.53 L 195.62 -10.53 Q 194.3 -10.45 192.54 -10.53 Q 190.79 -10.61 189.07 -10.96 Q 187.36 -11.31 185.87 -11.93 Q 184.39 -12.56 183.61 -13.65 L 183.61 -13.65 Q 183.53 -17.16 183.53 -21.18 Q 183.53 -25.19 183.53 -29.41 L 183.53 -29.41 L 195.62 -29.41 Q 195.47 -30.42 195.59 -31.86 Q 195.7 -33.31 195.78 -34.71 Q 195.86 -36.11 195.78 -37.32 Q 195.7 -38.53 195.16 -39.16 L 195.16 -39.16 Q 191.18 -38.92 188.49 -38.77 Q 185.8 -38.61 183.38 -38.53 L 183.38 -38.53 Q 183.38 -39.7 183.34 -40.79 Q 183.3 -41.89 183.3 -42.9 L 183.3 -42.9 L 183.3 -53.35 Z M 247.18 -27.14 Q 247.03 -27.07 247.03 -27.07 L 247.03 -27.07 Q 246.95 -27.07 246.95 -26.99 L 246.95 -26.99 L 246.95 -26.91 Q 247.1 -25.51 247.1 -24.57 Q 247.1 -23.63 247.06 -22.74 Q 247.03 -21.84 247.06 -20.9 Q 247.1 -19.97 247.26 -18.72 L 247.26 -18.72 Q 247.65 -18.56 248.39 -18.52 Q 249.13 -18.49 250.03 -18.52 Q 250.93 -18.56 251.74 -18.6 Q 252.56 -18.64 253.03 -18.56 L 253.03 -18.56 Q 253.27 -18.49 253.3 -17.86 Q 253.34 -17.24 253.3 -16.46 Q 253.27 -15.68 253.15 -14.94 Q 253.03 -14.2 252.95 -13.88 L 252.95 -13.88 Q 252.64 -12.79 252.02 -12.13 Q 251.39 -11.47 250.54 -11.08 L 250.54 -11.08 Q 249.44 -10.69 248.16 -10.45 Q 246.87 -10.22 245.7 -10.37 L 245.7 -10.37 Q 244.61 -10.61 243.91 -11.08 L 243.91 -11.08 Q 242.42 -12.25 241.96 -14.27 Q 241.49 -16.3 241.33 -18.02 L 241.33 -18.02 Q 241.1 -20.9 241.02 -24.1 Q 240.94 -27.3 241.1 -30.3 Q 241.25 -33.31 241.6 -35.96 Q 241.96 -38.61 242.5 -40.48 L 242.5 -40.48 Q 242.66 -41.11 242.93 -41.77 Q 243.2 -42.43 243.36 -42.59 L 243.36 -42.59 Q 244.3 -43.52 245.54 -43.52 Q 246.79 -43.52 248.12 -43.45 L 248.12 -43.45 Q 249.29 -43.45 250.15 -42.7 Q 251 -41.96 251.67 -40.99 Q 252.33 -40.01 252.76 -38.88 Q 253.19 -37.75 253.42 -36.97 L 253.42 -36.97 Q 254.59 -36.82 255.45 -36.74 Q 256.31 -36.66 257.13 -36.66 Q 257.95 -36.66 258.76 -36.7 Q 259.58 -36.74 260.75 -36.74 L 260.75 -36.74 Q 262 -36.82 262.55 -36.82 Q 263.09 -36.82 263.25 -37.05 L 263.25 -37.05 L 263.33 -37.52 Q 263.87 -42.28 262.47 -45.75 Q 261.07 -49.22 258.26 -51.32 Q 255.45 -53.43 251.55 -54.25 Q 247.65 -55.07 243.36 -54.52 L 243.36 -54.52 Q 241.25 -54.21 239.3 -53.59 Q 237.35 -52.96 235.79 -51.64 L 235.79 -51.64 Q 233.53 -50.08 232.56 -47.66 Q 231.58 -45.24 231.19 -42.67 L 231.19 -42.67 Q 230.8 -40.17 230.65 -37.56 Q 230.49 -34.94 230.41 -32.45 L 230.41 -32.45 Q 230.33 -29.56 230.37 -27.34 Q 230.41 -25.12 230.53 -23.13 Q 230.65 -21.14 230.8 -19.11 Q 230.96 -17.08 231.19 -14.59 L 231.19 -14.59 Q 231.35 -13.03 231.62 -11.51 Q 231.89 -9.98 232.13 -9.13 L 232.13 -9.13 Q 233.06 -5.77 234.7 -3.51 Q 236.34 -1.25 239.46 0.08 L 239.46 0.08 Q 241.33 0.86 243.4 1.09 Q 245.47 1.33 247.65 1.13 Q 249.83 0.94 251.94 0.51 Q 254.05 0.08 256 -0.47 L 256 -0.47 Q 258.96 -1.56 260.99 -3.67 Q 263.02 -5.77 263.41 -9.75 L 263.41 -9.75 Q 264.19 -13.96 264.03 -18.6 Q 263.87 -23.24 263.41 -27.38 L 263.41 -27.38 L 263.33 -27.46 L 263.17 -27.46 Q 262.39 -27.46 260.17 -27.65 Q 257.95 -27.85 255.37 -27.92 Q 252.8 -28 250.5 -27.89 Q 248.2 -27.77 247.18 -27.14 L 247.18 -27.14 Z M 311.45 -38.3 Q 311.22 -42.74 309.43 -45.86 Q 307.63 -48.98 304.86 -51.05 Q 302.09 -53.12 298.51 -54.17 Q 294.92 -55.22 291.13 -55.54 Q 287.35 -55.85 283.57 -55.46 Q 279.79 -55.07 276.59 -54.21 L 276.59 -54.21 Q 276.82 -47.74 276.86 -40.64 Q 276.9 -33.54 276.9 -26.52 Q 276.9 -19.5 276.9 -12.83 Q 276.9 -6.16 277.13 -0.47 L 277.13 -0.47 Q 278.46 -0.31 280.25 -0.23 Q 282.05 -0.16 283.88 -0.2 Q 285.71 -0.23 287.39 -0.35 Q 289.07 -0.47 290.16 -0.78 L 290.16 -0.78 Q 290.24 -0.78 290.28 -0.82 Q 290.32 -0.86 290.39 -0.86 L 290.39 -0.86 L 290.39 -0.94 Q 290.24 -6.63 290.2 -9.98 Q 290.16 -13.34 290.16 -15.33 Q 290.16 -17.32 290.16 -18.37 Q 290.16 -19.42 290.08 -20.51 L 290.08 -20.51 Q 293.83 -19.89 297.41 -20.86 Q 301 -21.84 303.97 -24.02 Q 306.93 -26.21 308.92 -29.33 Q 310.91 -32.45 311.38 -36.19 L 311.38 -36.19 Q 311.45 -36.66 311.45 -37.17 Q 311.45 -37.67 311.45 -38.22 L 311.45 -38.22 L 311.45 -38.3 Z M 297.8 -41.57 Q 298.82 -40.95 299.4 -40.01 Q 299.99 -39.08 300.18 -37.99 Q 300.38 -36.89 300.11 -35.8 Q 299.83 -34.71 299.21 -33.85 L 299.21 -33.85 Q 298.27 -32.92 296.99 -32.49 Q 295.7 -32.06 294.33 -31.9 Q 292.97 -31.75 291.56 -31.71 Q 290.16 -31.67 288.91 -31.59 L 288.91 -31.59 L 288.68 -31.59 Q 288.29 -32.76 288.17 -34.2 Q 288.05 -35.65 288.01 -37.21 Q 287.98 -38.77 288.01 -40.33 Q 288.05 -41.89 287.98 -43.29 L 287.98 -43.29 Q 288.05 -43.37 288.21 -43.37 L 288.21 -43.37 Q 290.71 -43.99 293.28 -43.56 Q 295.85 -43.13 297.8 -41.57 L 297.8 -41.57 Z M 357.01 -52.18 Q 356.07 -52.73 354.59 -52.88 Q 353.11 -53.04 351.47 -52.96 Q 349.83 -52.88 348.23 -52.69 Q 346.63 -52.49 345.62 -52.42 L 345.62 -52.42 Q 345.38 -43.37 345.35 -33.7 Q 345.31 -24.02 344.92 -14.66 L 344.92 -14.66 Q 344.53 -12.87 343.2 -11.86 Q 341.87 -10.84 340.31 -10.76 Q 338.75 -10.69 337.31 -11.54 Q 335.87 -12.4 335.32 -14.27 L 335.32 -14.27 Q 333.76 -33.7 334.62 -52.57 L 334.62 -52.57 L 334.62 -52.65 Q 333.45 -52.96 332.05 -53.08 Q 330.64 -53.2 329.16 -53.2 Q 327.68 -53.2 326.24 -53.12 Q 324.79 -53.04 323.62 -53.04 L 323.62 -53.04 L 323.54 -53.04 L 323.62 -52.96 Q 323.78 -42.67 323.54 -32.21 Q 323.31 -21.76 323.31 -11.47 L 323.31 -11.47 Q 323.47 -7.88 325.38 -5.34 Q 327.29 -2.81 330.14 -1.29 Q 332.98 0.23 336.49 0.82 Q 340 1.4 343.28 1.09 L 343.28 1.09 Q 348.89 0.55 352.17 -3.04 Q 355.45 -6.63 356.07 -11.78 L 356.07 -11.78 Q 357.16 -21.84 357.32 -32.02 Q 357.47 -42.2 357.01 -52.18 L 357.01 -52.18 Z" stroke-linecap="round" />
</g>
</g>
</g>
<g transform="matrix(1.9211538461538462 0 0 1.9211538461538462 162.98131305597684 512.4438937331809)" id="tagline-e9cb9705-187e-4ed2-b19d-6a2e262b106f-logo"  >
<g style=""  paint-order="stroke"   >
		<g transform="matrix(1 0 0 1 0 0)" id="tagline-e9cb9705-187e-4ed2-b19d-6a2e262b106f-logo-path-0"  >
<path style="stroke: none; stroke-width: 0; stroke-dasharray: none; stroke-linecap: butt; stroke-dashoffset: 0; stroke-linejoin: miter; stroke-miterlimit: 4; fill: rgb(217,217,216); fill-rule: nonzero; opacity: 1;"  paint-order="stroke"  transform=" translate(-13.991284192980466, 19.529846336472062)" d="M 16.35 -20.1 Q 17.36 -22.46 18.7 -24.81 Q 20.05 -27.16 21.42 -29.51 Q 22.79 -31.86 24 -34.22 Q 25.2 -36.57 25.87 -38.92 L 25.87 -38.92 Q 24.08 -39.2 22.06 -39.09 Q 20.05 -38.98 18.26 -39.09 L 18.26 -39.09 Q 17.08 -37.41 16.16 -35.73 Q 15.23 -34.05 14.36 -32.37 Q 13.5 -30.69 12.54 -29.06 Q 11.59 -27.44 10.42 -25.93 L 10.42 -25.93 Q 10.3 -25.82 10.22 -25.68 Q 10.14 -25.54 10.14 -25.59 L 10.14 -25.59 Q 10.02 -28.78 10.08 -32.31 Q 10.14 -35.84 10.02 -39.03 L 10.02 -39.03 Q 8.23 -39.03 6.3 -39.12 Q 4.37 -39.2 2.52 -39.14 L 2.52 -39.14 Q 2.58 -29.34 2.27 -19.63 Q 1.96 -9.91 2.41 -0.28 L 2.41 -0.28 Q 3.14 -0.11 4.23 0 Q 5.32 0.11 6.5 0.11 Q 7.67 0.11 8.74 0.03 Q 9.8 -0.06 10.58 -0.28 L 10.58 -0.28 Q 10.58 -1.85 10.56 -3.7 Q 10.53 -5.54 10.47 -7.45 Q 10.42 -9.35 10.39 -11.23 Q 10.36 -13.1 10.42 -14.73 L 10.42 -14.73 Q 11.31 -13.16 12.21 -11.2 Q 13.1 -9.24 14.03 -7.22 Q 14.95 -5.21 15.96 -3.33 Q 16.97 -1.46 18.14 -0.11 L 18.14 -0.11 Q 19.94 -0.06 22.04 0.06 Q 24.14 0.17 25.93 -0.22 L 25.93 -0.22 L 16.35 -20.1 Z" stroke-linecap="round" />
</g>
</g>
</g>
</svg>